# xmcd
#
# Track frame offsets: 
#        150
#        17379
#        34645
#        52245
#        74670
#        93050
#        107083
#        125017
#        138158
#        152750
#        167786
#        182710
#        196966
#        216574
#        231610
#        251885
#
# Disc length: 3584 seconds
#
# Revision: 0
# Processed by: cddbd v1.5.2PL0 Copyright (c) Steve Scherf et al.
# Submitted via: ExactAudioCopy v1.0b3
#
DISCID=ed0dfe10
DTITLE=Acoustic Blues Drifter - Drink That...
DYEAR=2014
DGENRE=Blues
TTITLE0=Walking Blues
TTITLE1=Quit Being Good
TTITLE2=Drink That
TTITLE3=My Old Friend
TTITLE4=Cadillac Boogie
TTITLE5=Nothing Is All
TTITLE6=Love in Vain
TTITLE7=Bright Lights, Big City
TTITLE8=Cruel Moon
TTITLE9=Don't Be in a Hurry
TTITLE10=Key to the Highway
TTITLE11=I Don't Care II
TTITLE12=Slow Boat to China
TTITLE13=500 Miles Away from Home
TTITLE14=Don't You Lie to Me
TTITLE15=From a Dead Beat
EXTD=
EXTT0=
EXTT1=
EXTT2=
EXTT3=
EXTT4=
EXTT5=
EXTT6=
EXTT7=
EXTT8=
EXTT9=
EXTT10=
EXTT11=
EXTT12=
EXTT13=
EXTT14=
EXTT15=
PLAYORDER=
